<mxfile host="app.diagrams.net" modified="2021-03-11T13:34:26.570Z" agent="5.0 (Windows NT 10.0; Win64; x64) AppleWebKit/537.36 (KHTML, like Gecko) Chrome/88.0.4324.190 Safari/537.36" etag="dBuINUPOdy3x0srm6GJ1" version="14.2.7" type="github">
  <diagram id="PQsuAjaLIpzGLL3Y-lxF" name="第 1 页">
    <mxGraphModel dx="966" dy="645" grid="1" gridSize="10" guides="1" tooltips="1" connect="1" arrows="1" fold="1" page="1" pageScale="1" pageWidth="827" pageHeight="1169" math="0" shadow="0">
      <root>
        <mxCell id="0" />
        <mxCell id="1" parent="0" />
        <mxCell id="B_peC4axxdurJuALT5Qs-1" value="商城后台管理系统" style="rounded=1;whiteSpace=wrap;html=1;strokeWidth=2;fontSize=15;" parent="1" vertex="1">
          <mxGeometry x="290" y="360" width="210" height="110" as="geometry" />
        </mxCell>
        <mxCell id="B_peC4axxdurJuALT5Qs-4" value="系统管理员" style="whiteSpace=wrap;html=1;aspect=fixed;strokeWidth=2;fontSize=15;" parent="1" vertex="1">
          <mxGeometry x="355" y="170" width="80" height="80" as="geometry" />
        </mxCell>
        <mxCell id="B_peC4axxdurJuALT5Qs-5" value="商店老板" style="whiteSpace=wrap;html=1;aspect=fixed;strokeWidth=2;fontSize=15;" parent="1" vertex="1">
          <mxGeometry x="630" y="375" width="80" height="80" as="geometry" />
        </mxCell>
        <mxCell id="B_peC4axxdurJuALT5Qs-6" value="业务员" style="whiteSpace=wrap;html=1;aspect=fixed;strokeWidth=2;fontSize=15;" parent="1" vertex="1">
          <mxGeometry x="80" y="375" width="80" height="80" as="geometry" />
        </mxCell>
        <mxCell id="B_peC4axxdurJuALT5Qs-7" value="" style="endArrow=classic;html=1;strokeWidth=2;entryX=0.5;entryY=0;entryDx=0;entryDy=0;exitX=0.5;exitY=1;exitDx=0;exitDy=0;fontSize=15;" parent="1" source="B_peC4axxdurJuALT5Qs-4" target="B_peC4axxdurJuALT5Qs-1" edge="1">
          <mxGeometry width="50" height="50" relative="1" as="geometry">
            <mxPoint x="395" y="250" as="sourcePoint" />
            <mxPoint x="530" y="190" as="targetPoint" />
          </mxGeometry>
        </mxCell>
        <mxCell id="B_peC4axxdurJuALT5Qs-8" value="身&lt;br style=&quot;font-size: 15px;&quot;&gt;份&lt;br style=&quot;font-size: 15px;&quot;&gt;信&lt;br style=&quot;font-size: 15px;&quot;&gt;息" style="text;html=1;align=center;verticalAlign=middle;resizable=0;points=[];autosize=1;fontSize=15;" parent="1" vertex="1">
          <mxGeometry x="390" y="260" width="30" height="80" as="geometry" />
        </mxCell>
        <mxCell id="B_peC4axxdurJuALT5Qs-9" value="" style="endArrow=classic;html=1;strokeWidth=2;exitX=1;exitY=0.75;exitDx=0;exitDy=0;entryX=0.75;entryY=0;entryDx=0;entryDy=0;fontSize=15;" parent="1" source="B_peC4axxdurJuALT5Qs-4" target="B_peC4axxdurJuALT5Qs-1" edge="1">
          <mxGeometry width="50" height="50" relative="1" as="geometry">
            <mxPoint x="500" y="240" as="sourcePoint" />
            <mxPoint x="550" y="190" as="targetPoint" />
            <Array as="points">
              <mxPoint x="448" y="230" />
            </Array>
          </mxGeometry>
        </mxCell>
        <mxCell id="B_peC4axxdurJuALT5Qs-10" value="用&lt;br style=&quot;font-size: 15px;&quot;&gt;户&lt;br style=&quot;font-size: 15px;&quot;&gt;添&lt;br style=&quot;font-size: 15px;&quot;&gt;加" style="text;html=1;align=center;verticalAlign=middle;resizable=0;points=[];autosize=1;fontSize=15;" parent="1" vertex="1">
          <mxGeometry x="420" y="260" width="30" height="80" as="geometry" />
        </mxCell>
        <mxCell id="B_peC4axxdurJuALT5Qs-11" value="用&lt;br style=&quot;font-size: 15px;&quot;&gt;户&lt;br style=&quot;font-size: 15px;&quot;&gt;修&lt;br style=&quot;font-size: 15px;&quot;&gt;改" style="text;html=1;align=center;verticalAlign=middle;resizable=0;points=[];autosize=1;fontSize=15;" parent="1" vertex="1">
          <mxGeometry x="340" y="260" width="30" height="80" as="geometry" />
        </mxCell>
        <mxCell id="B_peC4axxdurJuALT5Qs-12" value="用&lt;br style=&quot;font-size: 15px;&quot;&gt;户&lt;br style=&quot;font-size: 15px;&quot;&gt;删&lt;br style=&quot;font-size: 15px;&quot;&gt;除" style="text;html=1;align=center;verticalAlign=middle;resizable=0;points=[];autosize=1;fontSize=15;" parent="1" vertex="1">
          <mxGeometry x="290" y="255" width="30" height="80" as="geometry" />
        </mxCell>
        <mxCell id="B_peC4axxdurJuALT5Qs-13" value="角&lt;br style=&quot;font-size: 15px;&quot;&gt;色&lt;br style=&quot;font-size: 15px;&quot;&gt;查&lt;br style=&quot;font-size: 15px;&quot;&gt;询" style="text;html=1;align=center;verticalAlign=middle;resizable=0;points=[];autosize=1;fontSize=15;" parent="1" vertex="1">
          <mxGeometry x="500" y="255" width="30" height="80" as="geometry" />
        </mxCell>
        <mxCell id="B_peC4axxdurJuALT5Qs-14" value="角&lt;br style=&quot;font-size: 15px;&quot;&gt;色&lt;br style=&quot;font-size: 15px;&quot;&gt;权&lt;br style=&quot;font-size: 15px;&quot;&gt;限&lt;br style=&quot;font-size: 15px;&quot;&gt;变&lt;br style=&quot;font-size: 15px;&quot;&gt;更" style="text;html=1;align=center;verticalAlign=middle;resizable=0;points=[];autosize=1;fontSize=15;" parent="1" vertex="1">
          <mxGeometry x="450" y="240" width="30" height="110" as="geometry" />
        </mxCell>
        <mxCell id="B_peC4axxdurJuALT5Qs-15" value="" style="endArrow=classic;html=1;strokeWidth=2;exitX=0;exitY=0.75;exitDx=0;exitDy=0;entryX=0.25;entryY=0;entryDx=0;entryDy=0;fontSize=15;" parent="1" source="B_peC4axxdurJuALT5Qs-4" target="B_peC4axxdurJuALT5Qs-1" edge="1">
          <mxGeometry width="50" height="50" relative="1" as="geometry">
            <mxPoint x="290" y="230" as="sourcePoint" />
            <mxPoint x="340" y="180" as="targetPoint" />
            <Array as="points">
              <mxPoint x="343" y="230" />
            </Array>
          </mxGeometry>
        </mxCell>
        <mxCell id="B_peC4axxdurJuALT5Qs-16" value="" style="endArrow=classic;html=1;strokeWidth=2;exitX=1;exitY=0.25;exitDx=0;exitDy=0;entryX=1;entryY=0.073;entryDx=0;entryDy=0;entryPerimeter=0;fontSize=15;" parent="1" source="B_peC4axxdurJuALT5Qs-4" target="B_peC4axxdurJuALT5Qs-1" edge="1">
          <mxGeometry width="50" height="50" relative="1" as="geometry">
            <mxPoint x="500" y="200" as="sourcePoint" />
            <mxPoint x="550" y="150" as="targetPoint" />
            <Array as="points">
              <mxPoint x="500" y="190" />
            </Array>
          </mxGeometry>
        </mxCell>
        <mxCell id="B_peC4axxdurJuALT5Qs-17" value="" style="endArrow=classic;html=1;strokeWidth=2;exitX=0;exitY=0.25;exitDx=0;exitDy=0;entryX=0.01;entryY=0.082;entryDx=0;entryDy=0;entryPerimeter=0;fontSize=15;" parent="1" source="B_peC4axxdurJuALT5Qs-4" target="B_peC4axxdurJuALT5Qs-1" edge="1">
          <mxGeometry width="50" height="50" relative="1" as="geometry">
            <mxPoint x="160" y="250" as="sourcePoint" />
            <mxPoint x="210" y="200" as="targetPoint" />
            <Array as="points">
              <mxPoint x="290" y="190" />
            </Array>
          </mxGeometry>
        </mxCell>
        <mxCell id="B_peC4axxdurJuALT5Qs-18" value="" style="endArrow=classic;html=1;strokeWidth=2;exitX=1;exitY=0.25;exitDx=0;exitDy=0;entryX=0;entryY=0.25;entryDx=0;entryDy=0;fontSize=15;" parent="1" source="B_peC4axxdurJuALT5Qs-6" target="B_peC4axxdurJuALT5Qs-1" edge="1">
          <mxGeometry width="50" height="50" relative="1" as="geometry">
            <mxPoint x="200" y="380" as="sourcePoint" />
            <mxPoint x="250" y="330" as="targetPoint" />
          </mxGeometry>
        </mxCell>
        <mxCell id="B_peC4axxdurJuALT5Qs-19" value="身份信息" style="text;html=1;align=center;verticalAlign=middle;resizable=0;points=[];autosize=1;fontSize=15;" parent="1" vertex="1">
          <mxGeometry x="170" y="370" width="80" height="20" as="geometry" />
        </mxCell>
        <mxCell id="B_peC4axxdurJuALT5Qs-20" value="" style="endArrow=classic;html=1;strokeWidth=2;exitX=1;exitY=0.75;exitDx=0;exitDy=0;entryX=0;entryY=0.75;entryDx=0;entryDy=0;fontSize=15;" parent="1" source="B_peC4axxdurJuALT5Qs-6" target="B_peC4axxdurJuALT5Qs-1" edge="1">
          <mxGeometry width="50" height="50" relative="1" as="geometry">
            <mxPoint x="200" y="550" as="sourcePoint" />
            <mxPoint x="250" y="500" as="targetPoint" />
          </mxGeometry>
        </mxCell>
        <mxCell id="B_peC4axxdurJuALT5Qs-21" value="订单查看" style="text;html=1;align=center;verticalAlign=middle;resizable=0;points=[];autosize=1;fontSize=15;" parent="1" vertex="1">
          <mxGeometry x="170" y="440" width="80" height="20" as="geometry" />
        </mxCell>
        <mxCell id="B_peC4axxdurJuALT5Qs-22" value="" style="endArrow=classic;html=1;strokeWidth=2;entryX=1;entryY=0.25;entryDx=0;entryDy=0;fontSize=15;" parent="1" target="B_peC4axxdurJuALT5Qs-1" edge="1">
          <mxGeometry width="50" height="50" relative="1" as="geometry">
            <mxPoint x="630" y="395" as="sourcePoint" />
            <mxPoint x="610" y="240" as="targetPoint" />
          </mxGeometry>
        </mxCell>
        <mxCell id="B_peC4axxdurJuALT5Qs-23" value="" style="endArrow=classic;html=1;strokeWidth=2;exitX=0.5;exitY=1;exitDx=0;exitDy=0;entryX=0.75;entryY=1;entryDx=0;entryDy=0;fontSize=15;" parent="1" source="B_peC4axxdurJuALT5Qs-1" target="B_peC4axxdurJuALT5Qs-5" edge="1">
          <mxGeometry width="50" height="50" relative="1" as="geometry">
            <mxPoint x="540" y="550" as="sourcePoint" />
            <mxPoint x="590" y="500" as="targetPoint" />
            <Array as="points">
              <mxPoint x="395" y="560" />
              <mxPoint x="550" y="560" />
              <mxPoint x="690" y="560" />
            </Array>
          </mxGeometry>
        </mxCell>
        <mxCell id="B_peC4axxdurJuALT5Qs-24" value="" style="endArrow=classic;html=1;strokeWidth=2;exitX=0;exitY=0.75;exitDx=0;exitDy=0;entryX=1;entryY=0.75;entryDx=0;entryDy=0;fontSize=15;" parent="1" source="B_peC4axxdurJuALT5Qs-5" target="B_peC4axxdurJuALT5Qs-1" edge="1">
          <mxGeometry width="50" height="50" relative="1" as="geometry">
            <mxPoint x="520" y="530" as="sourcePoint" />
            <mxPoint x="570" y="480" as="targetPoint" />
          </mxGeometry>
        </mxCell>
        <mxCell id="B_peC4axxdurJuALT5Qs-25" value="上/下架商品" style="text;html=1;align=center;verticalAlign=middle;resizable=0;points=[];autosize=1;fontSize=15;" parent="1" vertex="1">
          <mxGeometry x="515" y="370" width="90" height="20" as="geometry" />
        </mxCell>
        <mxCell id="B_peC4axxdurJuALT5Qs-26" value="通知" style="text;html=1;align=center;verticalAlign=middle;resizable=0;points=[];autosize=1;fontSize=15;" parent="1" vertex="1">
          <mxGeometry x="525" y="540" width="50" height="20" as="geometry" />
        </mxCell>
        <mxCell id="B_peC4axxdurJuALT5Qs-27" value="查询订单/统计/拒绝发货" style="text;html=1;align=center;verticalAlign=middle;resizable=0;points=[];autosize=1;fontSize=15;" parent="1" vertex="1">
          <mxGeometry x="465" y="510" width="170" height="20" as="geometry" />
        </mxCell>
        <mxCell id="B_peC4axxdurJuALT5Qs-28" value="" style="endArrow=classic;html=1;strokeWidth=2;exitX=0.25;exitY=1;exitDx=0;exitDy=0;entryX=0.75;entryY=1;entryDx=0;entryDy=0;fontSize=15;" parent="1" source="B_peC4axxdurJuALT5Qs-5" target="B_peC4axxdurJuALT5Qs-1" edge="1">
          <mxGeometry width="50" height="50" relative="1" as="geometry">
            <mxPoint x="470" y="540" as="sourcePoint" />
            <mxPoint x="520" y="490" as="targetPoint" />
            <Array as="points">
              <mxPoint x="650" y="530" />
              <mxPoint x="448" y="530" />
            </Array>
          </mxGeometry>
        </mxCell>
        <mxCell id="B_peC4axxdurJuALT5Qs-29" value="身份信息" style="text;html=1;align=center;verticalAlign=middle;resizable=0;points=[];autosize=1;fontSize=15;" parent="1" vertex="1">
          <mxGeometry x="520" y="420" width="80" height="20" as="geometry" />
        </mxCell>
      </root>
    </mxGraphModel>
  </diagram>
</mxfile>
